<?xml version="1.0" standalone="no"?>
<!DOCTYPE svg PUBLIC "-//W3C//DTD SVG 20010904//EN"
 "http://www.w3.org/TR/2001/REC-SVG-20010904/DTD/svg10.dtd">
<svg version="1.0" xmlns="http://www.w3.org/2000/svg"
 width="512.000000pt" height="512.000000pt" viewBox="0 0 512.000000 512.000000"
 preserveAspectRatio="xMidYMid meet">
<metadata>
Created by potrace 1.11, written by Peter Selinger 2001-2013
</metadata>
<g transform="translate(0.000000,512.000000) scale(0.100000,-0.100000)"
fill="#000000" stroke="none">
<path d="M1978 4355 c-2 -1 -113 -6 -248 -9 -304 -9 -410 -13 -525 -21 -49 -3
-119 -8 -155 -10 -198 -13 -358 -33 -479 -59 -140 -31 -310 -157 -390 -290
-18 -31 -44 -85 -57 -121 -21 -59 -29 -88 -40 -150 -2 -11 -6 -33 -9 -50 -4
-16 -8 -43 -10 -60 -2 -16 -6 -46 -9 -65 -18 -122 -32 -284 -43 -500 -9 -171
-9 -788 0 -940 9 -157 16 -252 21 -302 3 -24 7 -68 11 -98 12 -117 29 -224 50
-316 42 -180 131 -317 270 -411 106 -72 201 -103 393 -128 23 -3 59 -7 80 -10
20 -3 69 -7 107 -10 39 -3 93 -7 120 -9 57 -5 214 -14 360 -21 525 -25 1861
-25 2315 -1 41 3 134 7 205 11 72 4 146 8 165 10 19 2 76 7 125 10 50 4 97 8
106 10 9 2 40 6 70 10 246 28 400 108 532 274 55 69 116 236 133 366 3 22 10
65 15 95 5 30 13 89 17 130 10 101 9 1647 -1 1735 -17 155 -33 251 -62 365
-17 70 -75 186 -118 237 -135 159 -276 227 -537 258 -25 3 -58 8 -75 10 -16 3
-64 7 -105 10 -41 3 -106 8 -145 11 -157 11 -197 13 -345 19 -85 4 -195 9
-245 11 -98 5 -1492 13 -1497 9z"/>
</g>
</svg>
